HIERARCHY
ROOT Hips
{
     OFFSET 1.88212 96.90440 -13.34250
     CHANNELS 6 Xposition Yposition Zposition Zrotation Xrotation Yrotation
     JOINT Spine
     {
          OFFSET 0.00000 11.89050 0.00000
          CHANNELS 3 Zrotation Xrotation Yrotation
          JOINT Spine1
          {
               OFFSET -0.00000 25.65740 0.12766
               CHANNELS 3 Zrotation Xrotation Yrotation
               JOINT HEad
               {
                    OFFSET 0.00000 8.73416 0.01134
                    CHANNELS 3 Zrotation Xrotation Yrotation
                    End Site
                    {
                         OFFSET -0.29000 12.77420 2.51395
                    }
               }
               JOINT LeftShoulder1
               {
                    OFFSET 8.99000 -0.36225 -0.22000
                    CHANNELS 3 Zrotation Xrotation Yrotation
                    JOINT LeftArm
                    {
                         OFFSET 10.28270 -0.00338 0.32212
                         CHANNELS 3 Zrotation Xrotation Yrotation
                         JOINT LeftForeArm
                         {
                              OFFSET 32.76690 0.09914 -1.42434
                              CHANNELS 3 Zrotation Xrotation Yrotation
                              JOINT LeftHand
                              {
                                   OFFSET 27.56430 0.08536 1.02216
                                   CHANNELS 3 Zrotation Xrotation Yrotation
                                   End Site
                                   {
                                        OFFSET 16.74430 -0.60000 1.50291
                                   }
                              }
                         }
                    }
               }
               JOINT RightShoulder
               {
                    OFFSET -8.99000 -0.36225 -0.22000
                    CHANNELS 3 Zrotation Xrotation Yrotation
                    JOINT RightArm
                    {
                         OFFSET -10.28270 -0.00338 0.32212
                         CHANNELS 3 Zrotation Xrotation Yrotation
                         JOINT RightForeArm
                         {
                              OFFSET -32.89710 0.09914 -1.42434
                              CHANNELS 3 Zrotation Xrotation Yrotation
                              JOINT RightHand
                              {
                                   OFFSET -27.49210 0.08536 1.02216
                                   CHANNELS 3 Zrotation Xrotation Yrotation
                                   End Site
                                   {
                                        OFFSET -16.63120 -0.60000 1.50291
                                   }
                              }
                         }
                    }
               }
          }
     }
     JOINT LeftUpLeg
     {
          OFFSET 8.94580 -8.66707 0.10165
          CHANNELS 3 Zrotation Xrotation Yrotation
          JOINT LeftLeg
          {
               OFFSET 0.00000 -44.42270 1.37270
               CHANNELS 3 Zrotation Xrotation Yrotation
               JOINT LeftFoot
               {
                    OFFSET -0.25355 -42.09240 -1.46059
                    CHANNELS 3 Zrotation Xrotation Yrotation
                    JOINT LeftToes
                    {
                         OFFSET -0.04000 -4.41509 8.49910
                         CHANNELS 3 Zrotation Xrotation Yrotation
                         End Site
                         {
                              OFFSET 0.08000 -0.04745 9.77979
                         }
                    }
               }
          }
     }
     JOINT RightUpLeg
     {
          OFFSET -8.94580 -8.66707 0.10165
          CHANNELS 3 Zrotation Xrotation Yrotation
          JOINT RightLeg
          {
               OFFSET 0.00000 -44.42270 1.37270
               CHANNELS 3 Zrotation Xrotation Yrotation
               JOINT RightFoot
               {
                    OFFSET 0.25355 -42.09240 -1.46059
                    CHANNELS 3 Zrotation Xrotation Yrotation
                    JOINT RightToes
                    {
                         OFFSET 0.04000 -4.41509 8.49910
                         CHANNELS 3 Zrotation Xrotation Yrotation
                         End Site
                         {
                              OFFSET -0.08000 -0.13745 9.77979
                         }
                    }
               }
          }
     }
}
MOTION
Frames: 17
Frame Time: 0.01667
127.34477 92.03297 530.01959 4.46437 -2.34762 85.83372 -10.27174 10.88495 -11.01245 -0.00156 0.01144 0.02266 -12.02932 12.48976 50.14004 -1.43041 4.75310 13.52023 -2.79166 -39.33781 -16.21844 -2.11185 -13.32739 -62.34122 2.70906 18.46563 2.61588 16.79243 9.29344 14.80472 43.44006 -22.99768 69.95618 21.33850 36.71787 100.34845 -7.90799 8.08123 0.77378 22.02650 -9.48348 -23.90285 -13.78603 15.04173 28.13037 31.78858 0.08361 0.05245 -51.04513 -20.44539 -1.16788 -36.13853 -11.91091 -14.94702 13.69511 48.49542 5.07874 18.50674 0.00934 -0.01055 -4.82889 -25.50003 -2.01407 
127.49503 91.78791 528.53943 4.41333 -2.17380 84.95589 -10.71705 10.78322 -10.28883 -0.00291 0.01080 0.02230 -12.13209 12.51392 49.61758 -1.20552 4.89107 13.83168 -6.59049 -50.40849 -13.77724 -6.97796 -2.84975 -68.16991 1.62998 -2.76513 -5.74919 16.63676 9.60900 15.58155 43.81269 -23.82615 68.90119 21.41879 36.85043 100.92527 -6.90964 8.40253 1.02048 22.56671 -11.05820 -19.22921 -16.37345 18.38746 24.99344 38.38829 0.08811 0.06651 -57.15021 -22.70914 -2.15258 -34.70333 -11.36066 -15.09552 9.86300 45.85696 7.85931 19.32176 0.00634 -0.01470 -5.28421 -25.56825 -3.11917 
127.66454 91.62600 527.14178 4.27585 -2.01958 84.24148 -11.16609 11.19556 -8.19611 -0.01510 0.04887 0.11549 -11.61990 12.31355 47.35920 -0.55597 4.48064 12.57710 -9.38105 -61.50150 -9.68986 -10.63355 8.65447 -73.56941 -0.47319 12.63124 -3.67835 16.77085 8.90243 14.99044 44.28335 -24.46365 68.07309 21.59256 36.95613 101.46789 -7.04100 7.85663 1.53746 23.12996 -12.73326 -13.74249 -18.29462 22.47329 21.37418 44.85398 0.09097 0.07062 -62.99272 -24.70260 -3.02774 -32.39540 -10.33472 -14.21209 5.76668 42.05325 9.38715 20.43636 0.00380 -0.02011 -5.53669 -24.94132 -4.65183 
127.85291 91.58572 525.82361 4.08612 -1.91483 83.70922 -11.63857 12.00021 -4.96533 -0.01534 0.04126 0.10644 -10.66882 11.99087 43.87233 0.51465 3.71277 10.14403 -8.98822 -71.84505 -1.65679 -13.36423 20.21334 -79.36922 1.98048 3.28156 -4.26122 17.09205 7.51504 13.34455 44.83490 -24.90137 67.49168 21.80013 37.10431 102.03960 -6.28112 8.18923 1.67367 23.62747 -14.34998 -7.59051 -19.09668 27.01892 17.14763 51.07230 0.08773 0.06497 -68.76793 -26.64259 -4.23479 -29.55195 -8.93816 -12.40700 1.66179 37.56073 9.46303 21.76794 0.00224 -0.02516 -5.36353 -23.60552 -6.35622 
128.05502 91.66979 524.58044 3.87358 -1.87429 83.36828 -12.16710 13.07379 -0.79530 -0.01471 0.03153 0.09341 -9.34900 11.55509 39.31583 1.95228 2.59592 6.73915 3.36459 -79.92619 19.16277 -20.32854 32.60068 -85.48420 2.27305 15.72837 -0.46208 17.52726 5.55612 10.70741 45.45493 -25.18089 67.14501 22.03158 37.31691 102.71040 -6.29087 8.03942 1.89816 24.05075 -15.69715 -1.98985 -19.05791 31.17610 13.24047 56.92175 0.07559 0.05189 -74.21820 -28.19173 -5.39279 -26.46613 -7.27067 -9.75849 -2.31388 32.87778 8.02604 23.16274 0.00149 -0.02806 -4.64054 -21.71280 -7.97344 
128.26599 91.84330 523.39288 3.65956 -1.88683 83.21916 -12.62861 13.91179 2.85657 -0.00227 -0.00905 -0.01560 -8.17451 11.25447 35.33356 2.89420 1.63273 4.21253 29.11310 -83.73709 49.69360 -25.52460 40.45604 -87.37101 2.55357 -5.18750 -6.00958 17.69873 3.98305 8.50534 46.15377 -25.43674 66.97185 22.32291 37.57629 103.40485 -5.82723 8.38313 1.82651 24.30361 -16.79000 3.01455 -18.16526 34.69750 9.48519 62.28724 0.05626 0.03664 -79.29710 -29.32859 -6.54725 -23.90048 -5.56609 -7.45095 -6.04433 28.58819 6.32660 24.32547 0.00148 -0.02502 -3.37020 -19.53279 -9.31673 
128.46393 92.02479 522.27209 3.46656 -1.96007 83.13216 -13.08289 14.64181 6.36009 -0.00208 -0.00591 -0.00937 -6.98123 10.94992 31.39677 3.97523 0.67095 1.82863 71.83161 -84.32024 96.57837 -31.19414 47.29923 -87.31768 1.60815 -14.47789 -9.11770 17.73685 2.47826 6.13836 46.98979 -25.60804 67.02486 22.70907 37.82654 104.09251 -5.50480 8.63443 1.72127 24.37906 -17.68262 7.76810 -16.13348 37.68056 5.57072 66.87741 0.03090 0.02960 -84.01545 -30.04121 -7.84528 -21.59532 -3.77062 -5.29594 -9.85223 24.24262 4.45620 25.36415 0.00289 -0.02681 -1.75445 -17.03894 -10.67285 
128.63376 92.14874 521.22919 3.29110 -2.07504 83.10680 -13.52723 15.26607 9.71650 -0.00165 -0.00476 -0.00816 -5.80702 10.66464 27.62713 4.86544 -0.24819 -0.28439 98.68324 -82.38887 126.95535 -37.47934 53.10411 -85.69233 1.73390 -11.15569 -8.55058 17.65834 1.12556 3.80912 47.90527 -25.77593 67.22214 23.19385 38.05851 104.74832 -5.28041 8.83462 1.61203 24.21187 -18.40300 12.24171 -13.03179 39.88748 1.40688 70.71667 0.01104 0.02404 -88.27502 -30.26154 -9.19549 -19.49452 -1.90500 -3.28152 -13.51861 20.00697 2.33682 26.04351 0.00291 -0.01982 0.22456 -14.42077 -11.88473 
128.76920 92.18479 520.27991 3.12698 -2.21408 83.14519 -13.95239 15.78382 12.90858 -0.00157 -0.00450 -0.00834 -4.66029 10.39748 24.02771 5.55436 -1.10292 -2.17497 109.98663 -80.05787 141.20125 -44.48846 57.82028 -82.64693 2.29772 -7.22013 -7.38628 17.47490 -0.07527 1.56767 48.88556 -25.97593 67.54466 23.79472 38.25360 105.33418 -5.13392 9.00619 1.49538 23.77865 -18.97509 16.41955 -9.04075 41.17538 -2.99923 73.84109 -0.00295 0.01927 -92.01836 -30.00352 -10.49363 -17.61382 -0.02888 -1.40720 -16.47476 16.38088 0.11017 25.78768 0.00361 -0.00062 2.62204 -12.28948 -12.81132 
128.87465 91.56195 519.45825 3.03960 -2.35906 83.24334 -14.18646 16.19957 15.82466 0.00205 -0.00277 -0.01235 -3.36039 10.08723 20.21275 6.43203 -1.59554 -4.17380 120.33907 -78.59556 154.12181 -53.15397 62.03282 -77.15907 2.65876 -4.66504 -11.84227 17.46766 -0.94872 -1.21570 51.18467 -25.22058 68.64032 24.62979 38.10270 105.34885 -8.97548 7.67840 5.07229 23.17947 -19.32260 19.93616 -5.97748 41.64973 -5.80199 77.20637 -0.01815 0.03849 -91.48887 -29.14521 -15.21008 -16.03390 1.78262 0.71363 -18.56152 13.04559 -2.60600 24.61223 0.01309 0.01913 3.53465 -13.21798 -8.77639 
128.93884 91.07034 518.70056 3.02325 -2.46567 83.40539 -14.26006 16.53710 18.43596 0.00219 -0.00312 -0.01317 -1.92755 9.67284 16.22340 7.42620 -1.82794 -6.19035 132.22395 -77.75588 168.08900 -63.86119 65.35526 -68.98814 4.61237 -1.05108 -13.03110 17.60413 -1.55450 -4.33485 54.55083 -23.56774 70.16567 25.56360 37.69289 104.91577 -13.91386 5.13908 10.16243 22.48142 -19.44674 22.84915 -3.69899 41.51088 -7.16405 80.63911 -0.02512 0.06110 -88.63976 -29.02987 -22.13173 -14.59250 3.41370 3.07891 -19.49507 10.38597 -5.33215 18.22222 0.07260 0.11776 7.72015 -16.57924 -2.32154 
128.97983 90.66624 517.95172 3.07594 -2.53068 83.63761 -14.17226 16.82938 20.72211 0.00264 -0.00314 -0.01337 -0.39780 9.08788 12.11193 8.40078 -1.87158 -8.15453 146.71095 -77.09850 184.04990 -76.37798 67.49247 -58.48901 7.81326 3.34399 -12.32473 17.84659 -1.95395 -7.59398 58.70170 -21.07947 71.73988 26.47878 37.03320 104.18766 -13.76675 4.73753 12.23537 21.73138 -19.33258 25.19044 -2.11665 40.86818 -7.20428 84.06178 -0.02818 0.08210 -88.27103 -29.10061 -28.09863 -13.18301 4.78221 5.64153 -19.36929 8.49024 -7.86098 9.23369 0.10578 0.14058 13.30776 -21.82317 5.54915 
129.01213 90.38968 517.16016 3.35090 -2.45711 84.08091 -13.57314 17.07977 21.93582 0.01001 -0.00359 -0.03851 0.48007 8.85080 8.84854 8.52280 -1.17778 -9.83328 175.43124 -76.80212 211.86392 -75.01641 66.69173 -57.52366 10.69351 6.62371 -9.71150 18.35768 -1.78774 -10.33215 65.01653 -16.71512 72.74281 26.87159 35.64517 102.62655 -3.04840 9.20332 8.54716 20.87802 -18.64109 25.72296 -2.88511 39.10334 -2.88255 87.83007 -0.05887 0.14976 -93.05704 -27.44821 -31.81815 -12.17508 5.20205 8.80676 -15.72812 7.90175 -11.20868 7.84017 0.02886 0.02778 8.20323 -30.17788 16.24172 
129.03577 90.24984 516.34650 3.83347 -2.26125 84.72121 -12.54915 17.30454 22.18851 0.00673 0.00000 -0.03486 0.84450 8.97594 6.31627 7.99768 -0.00259 -10.53403 208.79321 -73.57074 242.89493 -65.18909 64.34795 -63.09844 11.93742 8.39816 -9.86521 18.32262 -1.06436 -12.49208 72.93000 -11.26860 72.48744 26.46770 33.75708 100.93004 4.64104 10.82906 8.74623 20.02890 -17.38813 24.65275 -5.29170 36.39759 4.79753 91.76012 -0.06080 0.22125 -96.19747 -25.84233 -38.83440 -11.29645 5.47915 11.57060 -10.15231 7.28171 -14.73600 -1.10732 0.05518 0.03888 10.72627 -27.64643 12.54056 
129.04703 90.25859 515.58276 4.49976 -1.96889 85.53006 -11.19448 17.49862 21.60275 0.00481 0.00570 -0.02866 0.77773 9.43286 4.49432 7.09036 1.55253 -10.81356 222.79575 -69.85863 255.20920 -59.03565 62.59909 -66.83345 13.38909 9.73782 -8.50570 17.93955 0.14165 -13.95357 81.60241 -5.29773 70.70919 25.05449 31.48417 99.37925 17.88465 14.69581 5.05502 19.26860 -15.67509 22.16183 -7.87556 32.88372 14.53991 90.14576 0.01078 -0.09381 -95.48026 -23.73827 -45.84628 -10.74290 5.56467 13.96157 -3.33515 6.44700 -18.49796 -8.73615 0.01938 0.00672 10.05372 -41.48387 28.76649 
129.03404 90.37077 514.99060 5.30557 -1.67568 86.46901 -9.55552 17.62874 20.32707 0.00114 0.01312 -0.02089 0.38634 10.15985 3.33093 5.91883 3.38090 -10.74344 229.28934 -67.31995 260.50861 -55.08193 61.43312 -69.38717 13.94645 10.33142 -8.71895 17.46646 1.69591 -14.64849 87.11013 -1.75151 68.91584 23.36339 30.84434 99.22384 23.06117 15.19904 4.77897 18.81831 -13.61252 18.43952 -11.13041 28.56116 26.32048 88.92628 0.01526 -0.10003 -94.32174 -21.20786 -53.99418 -11.23400 5.54320 16.07046 2.39561 6.48493 -22.15924 -14.79891 0.00409 -0.04044 11.61731 -36.51806 22.47658 
129.00504 90.57219 514.62329 6.20511 -1.42521 87.50449 -7.73189 17.64954 18.51569 -0.00285 0.01994 -0.01342 -0.23165 11.09302 2.76964 4.57650 5.37634 -10.31534 232.59250 -65.84420 262.97751 -52.46582 60.72203 -71.09476 14.67451 10.77370 -8.17670 16.91158 3.51141 -14.70418 90.45431 0.27028 67.53113 21.76878 31.05549 99.50407 27.78266 15.98323 2.78405 18.85650 -11.39171 13.64620 -14.57383 24.21545 37.46953 87.60783 0.02727 -0.08482 -92.45258 -19.03658 -60.20417 -12.70136 5.40886 17.93706 8.55803 6.71534 -25.93684 -19.43225 -0.00498 -0.05489 12.02358 -41.56904 26.86825 
